<mxfile host="Electron" agent="Mozilla/5.0 (Windows NT 10.0; Win64; x64) AppleWebKit/537.36 (KHTML, like Gecko) draw.io/22.0.3 Chrome/114.0.5735.289 Electron/25.8.4 Safari/537.36" modified="2024-12-18T04:53:50.114Z" version="22.0.3" etag="XXC0lEwqbfw8H7IyZ6BV" type="device" pages="2">
  <diagram name="Прецедентов" id="k0mLBmaTsJIKWr_4cqUy">
    <mxGraphModel dx="1658" dy="828" grid="1" gridSize="10" guides="1" tooltips="1" connect="1" arrows="1" fold="1" page="1" pageScale="1" pageWidth="827" pageHeight="1169" math="0" shadow="0">
      <root>
        <mxCell id="0" />
        <mxCell id="1" parent="0" />
        <mxCell id="5suZ7zTIFBy2jub4hi7v-1" value="Программа &quot;График массивов&quot;" style="swimlane;whiteSpace=wrap;html=1;" parent="1" vertex="1">
          <mxGeometry x="309" y="140" width="210" height="350" as="geometry" />
        </mxCell>
        <mxCell id="5suZ7zTIFBy2jub4hi7v-4" value="Просмотр программы" style="ellipse;whiteSpace=wrap;html=1;" parent="5suZ7zTIFBy2jub4hi7v-1" vertex="1">
          <mxGeometry x="20" y="60" width="170" height="40" as="geometry" />
        </mxCell>
        <mxCell id="5suZ7zTIFBy2jub4hi7v-5" value="Проверка" style="ellipse;whiteSpace=wrap;html=1;" parent="5suZ7zTIFBy2jub4hi7v-1" vertex="1">
          <mxGeometry x="19.5" y="120" width="170" height="40" as="geometry" />
        </mxCell>
        <mxCell id="5suZ7zTIFBy2jub4hi7v-6" value="Исправление ошибок" style="ellipse;whiteSpace=wrap;html=1;" parent="5suZ7zTIFBy2jub4hi7v-1" vertex="1">
          <mxGeometry x="19.5" y="180" width="170" height="40" as="geometry" />
        </mxCell>
        <mxCell id="5suZ7zTIFBy2jub4hi7v-7" value="Выставление оценки" style="ellipse;whiteSpace=wrap;html=1;" parent="5suZ7zTIFBy2jub4hi7v-1" vertex="1">
          <mxGeometry x="20" y="250" width="170" height="40" as="geometry" />
        </mxCell>
        <mxCell id="5suZ7zTIFBy2jub4hi7v-2" value="Мачнева Е.А" style="shape=umlActor;verticalLabelPosition=bottom;verticalAlign=top;html=1;outlineConnect=0;" parent="1" vertex="1">
          <mxGeometry x="200" y="300" width="30" height="60" as="geometry" />
        </mxCell>
        <mxCell id="5suZ7zTIFBy2jub4hi7v-3" value="Кудинов С.В" style="shape=umlActor;verticalLabelPosition=bottom;verticalAlign=top;html=1;outlineConnect=0;" parent="1" vertex="1">
          <mxGeometry x="590" y="300" width="30" height="60" as="geometry" />
        </mxCell>
        <mxCell id="5suZ7zTIFBy2jub4hi7v-9" value="" style="endArrow=none;html=1;rounded=0;entryX=0;entryY=0.5;entryDx=0;entryDy=0;" parent="1" source="5suZ7zTIFBy2jub4hi7v-2" target="5suZ7zTIFBy2jub4hi7v-7" edge="1">
          <mxGeometry width="50" height="50" relative="1" as="geometry">
            <mxPoint x="390" y="460" as="sourcePoint" />
            <mxPoint x="440" y="410" as="targetPoint" />
          </mxGeometry>
        </mxCell>
        <mxCell id="5suZ7zTIFBy2jub4hi7v-11" value="" style="endArrow=none;html=1;rounded=0;entryX=0;entryY=0.5;entryDx=0;entryDy=0;" parent="1" target="5suZ7zTIFBy2jub4hi7v-5" edge="1">
          <mxGeometry width="50" height="50" relative="1" as="geometry">
            <mxPoint x="230" y="310" as="sourcePoint" />
            <mxPoint x="349" y="430" as="targetPoint" />
          </mxGeometry>
        </mxCell>
        <mxCell id="5suZ7zTIFBy2jub4hi7v-12" value="" style="endArrow=none;html=1;rounded=0;entryX=0;entryY=0.5;entryDx=0;entryDy=0;" parent="1" target="5suZ7zTIFBy2jub4hi7v-4" edge="1">
          <mxGeometry width="50" height="50" relative="1" as="geometry">
            <mxPoint x="230" y="290" as="sourcePoint" />
            <mxPoint x="359" y="440" as="targetPoint" />
          </mxGeometry>
        </mxCell>
        <mxCell id="5suZ7zTIFBy2jub4hi7v-13" value="" style="endArrow=none;html=1;rounded=0;exitX=1;exitY=0.5;exitDx=0;exitDy=0;" parent="1" source="5suZ7zTIFBy2jub4hi7v-4" target="5suZ7zTIFBy2jub4hi7v-3" edge="1">
          <mxGeometry width="50" height="50" relative="1" as="geometry">
            <mxPoint x="270" y="381" as="sourcePoint" />
            <mxPoint x="369" y="450" as="targetPoint" />
          </mxGeometry>
        </mxCell>
        <mxCell id="5suZ7zTIFBy2jub4hi7v-15" value="" style="endArrow=none;html=1;rounded=0;exitX=1;exitY=0.5;exitDx=0;exitDy=0;" parent="1" source="5suZ7zTIFBy2jub4hi7v-6" target="5suZ7zTIFBy2jub4hi7v-3" edge="1">
          <mxGeometry width="50" height="50" relative="1" as="geometry">
            <mxPoint x="290" y="401" as="sourcePoint" />
            <mxPoint x="389" y="470" as="targetPoint" />
          </mxGeometry>
        </mxCell>
      </root>
    </mxGraphModel>
  </diagram>
  <diagram id="h2TLwqz6Jnle6Q-ke_Zp" name="Последовательности">
    <mxGraphModel dx="989" dy="582" grid="1" gridSize="10" guides="1" tooltips="1" connect="1" arrows="1" fold="1" page="1" pageScale="1" pageWidth="827" pageHeight="1169" math="0" shadow="0">
      <root>
        <mxCell id="0" />
        <mxCell id="1" parent="0" />
        <mxCell id="xVPnWR43A9DnzKfPLUyP-1" value="Кудинов С.В" style="rounded=0;whiteSpace=wrap;html=1;" vertex="1" parent="1">
          <mxGeometry x="100" y="270" width="160" height="50" as="geometry" />
        </mxCell>
        <mxCell id="xVPnWR43A9DnzKfPLUyP-2" value="Программа" style="rounded=0;whiteSpace=wrap;html=1;" vertex="1" parent="1">
          <mxGeometry x="510" y="270" width="160" height="50" as="geometry" />
        </mxCell>
        <mxCell id="xVPnWR43A9DnzKfPLUyP-3" value="Мачнева Е.А" style="rounded=0;whiteSpace=wrap;html=1;" vertex="1" parent="1">
          <mxGeometry x="300" y="270" width="160" height="50" as="geometry" />
        </mxCell>
        <mxCell id="UnhbQeAei4vyN-eBRnOE-1" value="" style="endArrow=none;dashed=1;html=1;dashPattern=1 3;strokeWidth=2;rounded=0;exitX=0.5;exitY=1;exitDx=0;exitDy=0;" edge="1" parent="1" source="xVPnWR43A9DnzKfPLUyP-1">
          <mxGeometry width="50" height="50" relative="1" as="geometry">
            <mxPoint x="390" y="460" as="sourcePoint" />
            <mxPoint x="180" y="370" as="targetPoint" />
          </mxGeometry>
        </mxCell>
        <mxCell id="UnhbQeAei4vyN-eBRnOE-2" value="" style="rounded=0;whiteSpace=wrap;html=1;direction=south;" vertex="1" parent="1">
          <mxGeometry x="160" y="370" width="40" height="330" as="geometry" />
        </mxCell>
        <mxCell id="UnhbQeAei4vyN-eBRnOE-3" value="" style="endArrow=none;dashed=1;html=1;dashPattern=1 3;strokeWidth=2;rounded=0;exitX=0.5;exitY=1;exitDx=0;exitDy=0;" edge="1" parent="1">
          <mxGeometry width="50" height="50" relative="1" as="geometry">
            <mxPoint x="590" y="320" as="sourcePoint" />
            <mxPoint x="590" y="370" as="targetPoint" />
          </mxGeometry>
        </mxCell>
        <mxCell id="UnhbQeAei4vyN-eBRnOE-4" value="" style="rounded=0;whiteSpace=wrap;html=1;direction=south;" vertex="1" parent="1">
          <mxGeometry x="570" y="370" width="40" height="390" as="geometry" />
        </mxCell>
        <mxCell id="UnhbQeAei4vyN-eBRnOE-6" value="" style="endArrow=none;dashed=1;html=1;dashPattern=1 3;strokeWidth=2;rounded=0;exitX=0.5;exitY=1;exitDx=0;exitDy=0;" edge="1" parent="1">
          <mxGeometry width="50" height="50" relative="1" as="geometry">
            <mxPoint x="379.5" y="320" as="sourcePoint" />
            <mxPoint x="379.5" y="370" as="targetPoint" />
          </mxGeometry>
        </mxCell>
        <mxCell id="UnhbQeAei4vyN-eBRnOE-8" value="" style="rounded=0;whiteSpace=wrap;html=1;direction=south;" vertex="1" parent="1">
          <mxGeometry x="360" y="370" width="40" height="150" as="geometry" />
        </mxCell>
        <mxCell id="UnhbQeAei4vyN-eBRnOE-9" value="&lt;span style=&quot;color: rgba(0, 0, 0, 0); font-family: monospace; font-size: 0px; text-align: start;&quot;&gt;%3CmxGraphModel%3E%3Croot%3E%3CmxCell%20id%3D%220%22%2F%3E%3CmxCell%20id%3D%221%22%20parent%3D%220%22%2F%3E%3CmxCell%20id%3D%222%22%20value%3D%22%22%20style%3D%22rounded%3D0%3BwhiteSpace%3Dwrap%3Bhtml%3D1%3Bdirection%3Dsouth%3B%22%20vertex%3D%221%22%20parent%3D%221%22%3E%3CmxGeometry%20x%3D%22394%22%20y%3D%22370%22%20width%3D%2240%22%20height%3D%22330%22%20as%3D%22geometry%22%2F%3E%3C%2FmxCell%3E%3C%2Froot%3E%3C%2FmxGraphModel%3E&lt;/span&gt;&lt;div&gt;&lt;span style=&quot;color: rgba(0, 0, 0, 0); font-family: monospace; font-size: 0px; text-align: start;&quot;&gt;&lt;br&gt;&lt;/span&gt;&lt;/div&gt;" style="shape=umlActor;verticalLabelPosition=bottom;verticalAlign=top;html=1;outlineConnect=0;" vertex="1" parent="1">
          <mxGeometry x="165" y="210" width="30" height="60" as="geometry" />
        </mxCell>
        <mxCell id="UnhbQeAei4vyN-eBRnOE-12" value="&lt;span style=&quot;color: rgba(0, 0, 0, 0); font-family: monospace; font-size: 0px; text-align: start;&quot;&gt;%3CmxGraphModel%3E%3Croot%3E%3CmxCell%20id%3D%220%22%2F%3E%3CmxCell%20id%3D%221%22%20parent%3D%220%22%2F%3E%3CmxCell%20id%3D%222%22%20value%3D%22%22%20style%3D%22rounded%3D0%3BwhiteSpace%3Dwrap%3Bhtml%3D1%3Bdirection%3Dsouth%3B%22%20vertex%3D%221%22%20parent%3D%221%22%3E%3CmxGeometry%20x%3D%22394%22%20y%3D%22370%22%20width%3D%2240%22%20height%3D%22330%22%20as%3D%22geometry%22%2F%3E%3C%2FmxCell%3E%3C%2Froot%3E%3C%2FmxGraphModel%3E&lt;/span&gt;&lt;div&gt;&lt;span style=&quot;color: rgba(0, 0, 0, 0); font-family: monospace; font-size: 0px; text-align: start;&quot;&gt;&lt;br&gt;&lt;/span&gt;&lt;/div&gt;" style="shape=umlActor;verticalLabelPosition=bottom;verticalAlign=top;html=1;outlineConnect=0;" vertex="1" parent="1">
          <mxGeometry x="365" y="210" width="30" height="60" as="geometry" />
        </mxCell>
        <mxCell id="UnhbQeAei4vyN-eBRnOE-19" value="" style="endArrow=classic;html=1;rounded=0;exitX=0;exitY=0;exitDx=0;exitDy=0;entryX=0;entryY=1;entryDx=0;entryDy=0;" edge="1" parent="1" source="UnhbQeAei4vyN-eBRnOE-2" target="UnhbQeAei4vyN-eBRnOE-8">
          <mxGeometry width="50" height="50" relative="1" as="geometry">
            <mxPoint x="390" y="560" as="sourcePoint" />
            <mxPoint x="440" y="510" as="targetPoint" />
          </mxGeometry>
        </mxCell>
        <mxCell id="UnhbQeAei4vyN-eBRnOE-20" value="Запрос на проверку" style="edgeLabel;html=1;align=center;verticalAlign=middle;resizable=0;points=[];" vertex="1" connectable="0" parent="UnhbQeAei4vyN-eBRnOE-19">
          <mxGeometry x="-0.025" y="-1" relative="1" as="geometry">
            <mxPoint as="offset" />
          </mxGeometry>
        </mxCell>
        <mxCell id="UnhbQeAei4vyN-eBRnOE-21" style="edgeStyle=orthogonalEdgeStyle;rounded=0;orthogonalLoop=1;jettySize=auto;html=1;exitX=0.25;exitY=0;exitDx=0;exitDy=0;" edge="1" parent="1" source="UnhbQeAei4vyN-eBRnOE-8">
          <mxGeometry relative="1" as="geometry">
            <mxPoint x="570" y="450" as="targetPoint" />
            <Array as="points">
              <mxPoint x="400" y="450" />
              <mxPoint x="570" y="450" />
            </Array>
          </mxGeometry>
        </mxCell>
        <mxCell id="UnhbQeAei4vyN-eBRnOE-22" value="Проверка" style="edgeLabel;html=1;align=center;verticalAlign=middle;resizable=0;points=[];" vertex="1" connectable="0" parent="UnhbQeAei4vyN-eBRnOE-21">
          <mxGeometry x="-0.0605" relative="1" as="geometry">
            <mxPoint y="1" as="offset" />
          </mxGeometry>
        </mxCell>
        <mxCell id="UnhbQeAei4vyN-eBRnOE-23" value="" style="endArrow=none;dashed=1;html=1;dashPattern=1 3;strokeWidth=2;rounded=0;entryX=0.164;entryY=0.925;entryDx=0;entryDy=0;entryPerimeter=0;exitX=0.42;exitY=0;exitDx=0;exitDy=0;exitPerimeter=0;startArrow=classic;startFill=1;" edge="1" parent="1">
          <mxGeometry width="50" height="50" relative="1" as="geometry">
            <mxPoint x="397" y="469.9999999999999" as="sourcePoint" />
            <mxPoint x="569.9999999999998" y="470.96000000000004" as="targetPoint" />
          </mxGeometry>
        </mxCell>
        <mxCell id="UnhbQeAei4vyN-eBRnOE-24" value="&amp;nbsp;Проверка завершена" style="edgeLabel;html=1;align=center;verticalAlign=middle;resizable=0;points=[];" vertex="1" connectable="0" parent="UnhbQeAei4vyN-eBRnOE-23">
          <mxGeometry x="-0.0983" relative="1" as="geometry">
            <mxPoint as="offset" />
          </mxGeometry>
        </mxCell>
        <mxCell id="UnhbQeAei4vyN-eBRnOE-29" value="" style="endArrow=none;dashed=1;html=1;dashPattern=1 3;strokeWidth=2;rounded=0;exitX=0.194;exitY=-0.034;exitDx=0;exitDy=0;exitPerimeter=0;entryX=0.43;entryY=0.932;entryDx=0;entryDy=0;entryPerimeter=0;startArrow=classic;startFill=1;" edge="1" parent="1" source="UnhbQeAei4vyN-eBRnOE-2" target="UnhbQeAei4vyN-eBRnOE-8">
          <mxGeometry width="50" height="50" relative="1" as="geometry">
            <mxPoint x="430" y="490" as="sourcePoint" />
            <mxPoint x="480" y="440" as="targetPoint" />
          </mxGeometry>
        </mxCell>
        <mxCell id="UnhbQeAei4vyN-eBRnOE-30" value="Результат проверки" style="edgeLabel;html=1;align=center;verticalAlign=middle;resizable=0;points=[];" vertex="1" connectable="0" parent="UnhbQeAei4vyN-eBRnOE-29">
          <mxGeometry x="-0.1026" y="-1" relative="1" as="geometry">
            <mxPoint as="offset" />
          </mxGeometry>
        </mxCell>
      </root>
    </mxGraphModel>
  </diagram>
</mxfile>
